<?xml version='1.0' encoding='utf-8'?>
<!DOCTYPE svg PUBLIC '-//W3C//DTD SVG 1.1//EN' 'http://www.w3.org/Graphics/SVG/1.1/DTD/svg11.dtd'>
<svg version="1.1" xmlns="http://www.w3.org/2000/svg" viewBox="0 0 512 512" xmlns:xlink="http://www.w3.org/1999/xlink" enable-background="new 0 0 512 512">
  <g>
    <g>
      <rect width="20.8" x="136.6" y="65" height="20.8"/>
      <rect width="20.8" x="136.6" y="245.6" height="20.8"/>
      <rect width="20.8" x="136.6" y="426.3" height="20.8"/>
      <path d="m489.6,65h-51.9v-42.6c0-6.2-4.2-10.4-10.4-10.4h-342.6c-6.2,0-10.4,4.2-10.4,10.4v42.6h-51.9c-6.2,0-10.4,4.1-10.4,10.4v361.3c0,6.2 4.2,10.4 10.4,10.4h51.9v42.6c0,6.2 4.2,10.4 10.4,10.4h342.6c6.2,0 10.4-4.2 10.4-10.4v-107c0-6.2-4.2-10.4-10.4-10.4h-342.6c-6.2,0-10.4,4.2-10.4,10.4v42.6h-41.5v-339.6h41.5v43.6c0,6.2 4.2,10.4 10.4,10.4h342.6c6.2,0 10.4-5.2 10.4-10.4v-43.6h41.5v159.9h-41.5v-42.6c0-6.2-4.2-10.4-10.4-10.4h-342.6c-6.2,0-10.4,4.2-10.4,10.4v105.9c0,6.2 4.2,10.4 10.4,10.4h342.6c6.2,0 10.4-4.2 10.4-9.3v-43.6h51.9c6.2,0 10.4-4.2 10.4-10.4v-180.6c5.68434e-14-6.3-4.2-10.4-10.4-10.4zm-181.7,414.2v-86.2h44.6v86.2h-44.6zm109,0h-43.6v-86.2h43.6v86.2zm-321.8-86.2h192.1v86.2h-192.1v-86.2zm257.4-360.2v86.2h-44.6v-86.2h44.6zm-257.4,0h192.1v86.2h-192.1v-86.2zm321.8,86.2h-43.6v-86.2h43.6v86.2zm-64.4,93.4v86.2h-44.6v-86.2h44.6zm-257.4-0h192.1v86.2h-192.1v-86.2zm321.8,86.2h-43.6v-86.2h43.6v86.2z"/>
    </g>
  </g>
</svg>
